# This file uses centimeters as units for non-parametric coordinates.

v -0.500000 -0.500000 0.500000
v 0.500000 -0.500000 0.500000
v 0.500000 0.120473 0.500000
v -0.072383 0.120473 0.500000
v -0.072383 0.500000 0.500000
v -0.500000 0.500000 0.500000
v -0.500000 -0.500000 -0.500000
v -0.500000 0.500000 -0.500000
v 0.500000 -0.500000 -0.500000
v 0.500000 0.500000 -0.500000
v 0.500000 0.500000 -0.058569
v 0.500000 0.120473 -0.058569
v -0.072383 0.500000 -0.058569
v -0.072383 0.120473 -0.058569
vt 0.375000 0.000000
vt 0.625000 0.000000
vt 0.625000 0.155118
vt 0.481904 0.155118
vt 0.481904 0.250000
vt 0.375000 0.250000
vt 0.125000 0.000000
vt 0.125000 0.250000
vt 0.375000 0.750000
vt 0.625000 0.750000
vt 0.625000 1.000000
vt 0.375000 1.000000
vt 0.875000 0.000000
vt 0.875000 0.250000
vt 0.764642 0.250000
vt 0.764642 0.155118
vt 0.481904 0.389642
vt 0.625000 0.389642
vt 0.625000 0.500000
vt 0.375000 0.500000
vt 0.518096 0.750000
vt 0.518096 0.655118
vt 0.375000 0.655118
vt 0.375000 0.750000
vt 0.375000 0.889642
vt 0.518096 0.889642
vt 0.125000 0.000000
vt 0.125000 0.094882
vt 0.264642 0.094882
vt 0.264642 0.000000
vn 0.000000 0.000000 1.000000
vn 0.000000 0.000000 1.000000
vn 0.000000 0.000000 1.000000
vn 0.000000 0.000000 1.000000
vn 0.000000 0.000000 1.000000
vn 0.000000 0.000000 1.000000
vn -1.000000 0.000000 0.000000
vn -1.000000 0.000000 0.000000
vn -1.000000 0.000000 0.000000
vn -1.000000 0.000000 0.000000
vn 0.000000 -1.000000 0.000000
vn 0.000000 -1.000000 0.000000
vn 0.000000 -1.000000 0.000000
vn 0.000000 -1.000000 0.000000
vn 1.000000 0.000000 0.000000
vn 1.000000 0.000000 0.000000
vn 1.000000 0.000000 0.000000
vn 1.000000 0.000000 0.000000
vn 1.000000 0.000000 0.000000
vn 1.000000 0.000000 0.000000
vn 0.000000 1.000000 0.000000
vn 0.000000 1.000000 0.000000
vn 0.000000 1.000000 0.000000
vn 0.000000 1.000000 0.000000
vn 0.000000 1.000000 0.000000
vn 0.000000 1.000000 0.000000
vn 0.000000 0.000000 -1.000000
vn 0.000000 0.000000 -1.000000
vn 0.000000 0.000000 -1.000000
vn 0.000000 0.000000 -1.000000
vn 0.000000 0.000000 1.000000
vn 0.000000 0.000000 1.000000
vn 0.000000 0.000000 1.000000
vn 0.000000 0.000000 1.000000
vn 0.000000 1.000000 0.000000
vn 0.000000 1.000000 0.000000
vn 0.000000 1.000000 0.000000
vn 0.000000 1.000000 0.000000
vn 1.000000 0.000000 0.000000
vn 1.000000 0.000000 0.000000
vn 1.000000 0.000000 0.000000
vn 1.000000 0.000000 0.000000
f 1/1/1 2/2/2 3/3/3 4/4/4 5/5/5 6/6/6
f 7/7/7 1/1/8 6/6/9 8/8/10
f 7/9/11 9/10/12 2/11/13 1/12/14
f 2/2/15 9/13/16 10/14/17 11/15/18 12/16/19 3/3/20
f 6/6/21 5/5/22 13/17/23 11/18/24 10/19/25 8/20/26
f 8/20/27 10/19/28 9/10/29 7/9/30
f 12/21/31 11/22/32 13/23/33 14/24/34
f 14/24/35 4/25/36 3/26/37 12/21/38
f 14/27/39 13/28/40 5/29/41 4/30/42
